<svg xmlns="http://www.w3.org/2000/svg" xmlns:xlink="http://www.w3.org/1999/xlink" x="0px" y="0px" width="80px" height="16px" viewBox="0 0 80 16">
	<g transform="translate(0,0)">
	<path fill="#ffffff" d="M3.5,4C1.6,4,0,5.6,0,7.5S1.6,11,3.5,11h0.1l2.6,4.3c0.4,0.7,1.3,0.9,2.1,0.5c0.7-0.4,0.9-1.3,0.5-2.1
		L7.1,11H9l7,4V0L9,4H3.5z"></path>
	</g>
	<g transform="translate(16,0)">
	<path data-color="color-2" fill="#ea6a6a" d="M15,1H1C0.4,1,0,1.4,0,2v1.4l8,4.5l8-4.4V2C16,1.4,15.6,1,15,1z"></path>
	<path fill="#ffffff" d="M7.5,9.9L0,5.7V14c0,0.6,0.4,1,1,1h14c0.6,0,1-0.4,1-1V5.7L8.5,9.9C8.22,10.04,7.78,10.04,7.5,9.9z"></path>
	</g>
	<g transform="translate(32,0)">
	<path fill="#ffffff" d="M15,2h-2V1c0-0.6-0.4-1-1-1h-1c-0.6,0-1,0.4-1,1v1H6V1c0-0.6-0.4-1-1-1H4C3.4,0,3,0.4,3,1v1H1
		C0.4,2,0,2.4,0,3v12c0,0.6,0.4,1,1,1h14c0.6,0,1-0.4,1-1V3C16,2.4,15.6,2,15,2z M14,14H2V7h12V14z"></path>
	</g>
	<g transform="translate(48,0)">
	<rect y="6.016" fill="#ffffff" width="4" height="4"></rect>
	<rect y="12" fill="#ffffff" width="4" height="4"></rect>
	<rect x="6" fill="#ffffff" width="4" height="4"></rect>
	<rect fill="#ffffff" width="4" height="4"></rect>
	<rect x="12" fill="#ffffff" width="4" height="4"></rect>
	<rect x="6" y="6.016" fill="#ffffff" width="4" height="4"></rect>
	<rect data-color="color-2" x="13" y="7" fill="#ea6a6a" width="2" height="2"></rect>
	<rect data-color="color-2" x="13" y="13" fill="#ea6a6a" width="2" height="2"></rect>
	<rect data-color="color-2" x="7" y="13" fill="#ea6a6a" width="2" height="2"></rect>
	</g>
	<g transform="translate(64, 0)">
	<rect data-color="color-2" x="6" y="6" fill="#ea6a6a" width="4" height="2"></rect>
	<path fill="#ffffff" d="M15.651,6.241l-7-6c-0.375-0.322-0.927-0.322-1.302,0L4,3.112V2c0-0.553-0.448-1-1-1S2,1.447,2,2v2.826
		L0.349,6.241C-0.07,6.601-0.119,7.231,0.241,7.65c0.359,0.42,0.99,0.468,1.41,0.108L2,7.46V15c0,0.553,0.448,1,1,1h10
		c0.552,0,1-0.447,1-1V7.46l0.349,0.299C14.538,7.921,14.769,8,15,8c0.282,0,0.562-0.118,0.76-0.35
		C16.119,7.231,16.07,6.601,15.651,6.241z M12,14h-2v-4H6v4H4V5.746l4-3.428l4,3.428V14z"></path>
	</g>



</svg>